<svg width="32" height="32" viewBox="0 0 32 32" fill="none" xmlns="http://www.w3.org/2000/svg">
<path d="M22.6667 4C24.4349 4 26.1306 4.70238 27.3808 5.95262C28.631 7.20286 29.3334 8.89856 29.3334 10.6667V21.3333C29.3334 23.1014 28.631 24.7971 27.3808 26.0474C26.1306 27.2976 24.4349 28 22.6667 28H4.00008C3.64646 28 3.30732 27.8595 3.05727 27.6095C2.80722 27.3594 2.66675 27.0203 2.66675 26.6667V10.6667C2.66675 8.89856 3.36913 7.20286 4.61937 5.95262C5.86961 4.70238 7.5653 4 9.33342 4H22.6667ZM22.6667 6.66667H9.33342C8.27255 6.66667 7.25513 7.08809 6.50499 7.83824C5.75484 8.58839 5.33341 9.6058 5.33341 10.6667V25.3333H22.6667C23.7276 25.3333 24.745 24.9119 25.4952 24.1618C26.2453 23.4116 26.6667 22.3942 26.6667 21.3333V10.6667C26.6667 9.6058 26.2453 8.58839 25.4952 7.83824C24.745 7.08809 23.7276 6.66667 22.6667 6.66667ZM12.0001 13.3333C12.3537 13.3333 12.6928 13.4738 12.9429 13.7239C13.1929 13.9739 13.3334 14.313 13.3334 14.6667V17.3333C13.3334 17.687 13.1929 18.0261 12.9429 18.2761C12.6928 18.5262 12.3537 18.6667 12.0001 18.6667C11.6465 18.6667 11.3073 18.5262 11.0573 18.2761C10.8072 18.0261 10.6667 17.687 10.6667 17.3333V14.6667C10.6667 14.313 10.8072 13.9739 11.0573 13.7239C11.3073 13.4738 11.6465 13.3333 12.0001 13.3333ZM20.0001 13.3333C20.3267 13.3334 20.6419 13.4533 20.8859 13.6703C21.13 13.8873 21.2859 14.1863 21.3241 14.5107L21.3334 14.6667V17.3333C21.333 17.6732 21.2029 18 20.9696 18.2472C20.7363 18.4943 20.4175 18.643 20.0782 18.6629C19.739 18.6828 19.4049 18.5724 19.1443 18.3543C18.8837 18.1362 18.7162 17.8268 18.6761 17.4893L18.6667 17.3333V14.6667C18.6667 14.313 18.8072 13.9739 19.0573 13.7239C19.3073 13.4738 19.6465 13.3333 20.0001 13.3333Z" fill="black"/>
</svg>
