<svg width="24" height="24" viewBox="0 0 24 24" fill="none" xmlns="http://www.w3.org/2000/svg">
<path d="M17.25 1.5L18.4448 3.75L21 4.0605L19.125 5.75025L19.5 8.25L17.25 6.84375L15 8.25L15.375 5.75025L13.5 4.0605L16.125 3.75L17.25 1.5Z" fill="black"/>
<path d="M17.0381 9.93674L15.5846 9.56324C15.3241 10.5669 14.7719 11.4709 13.9979 12.1609C13.2238 12.8509 12.2626 13.296 11.2357 13.4399C10.2088 13.5839 9.16231 13.4203 8.22835 12.9698C7.29439 12.5192 6.51492 11.802 5.98841 10.9087C5.4619 10.0153 5.21197 8.986 5.2702 7.95069C5.32843 6.91538 5.69221 5.92056 6.31557 5.0919C6.93894 4.26325 7.79392 3.63794 8.7725 3.29497C9.75109 2.95201 10.8094 2.90678 11.8136 3.16499L12.1879 1.71224C10.7239 1.33143 9.17434 1.454 7.78841 2.06025C6.40247 2.6665 5.26067 3.7212 4.54658 5.05478C3.83248 6.38835 3.58759 7.92332 3.85128 9.4129C4.11496 10.9025 4.8719 12.2601 6.0004 13.2675V22.5L10.5004 19.5L15.0004 22.5V13.281C15.9966 12.3933 16.706 11.2291 17.0381 9.93674ZM13.5004 19.6972L10.5004 17.697L7.5004 19.6972V14.2875C8.43111 14.7553 9.4582 14.9993 10.4999 15.0001C11.5415 15.0009 12.569 14.7584 13.5004 14.292V19.6972Z" fill="black"/>
</svg>
